<?xml version="1.0" encoding="UTF-8"?><svg id="Layer_2" xmlns="http://www.w3.org/2000/svg" viewBox="0 0 80 80"><path d="m41.28,76.04c-.06-.04-.12-.05-.19-.05h0c.05-.08.12-.18.17-.26.3-.46.76-1.14.8-1.96l11.17-13.79c.34-.62.22-1.3-.26-1.73l-1.12-1c-7.21-6.43-10.21-8.81-11.09-8.81-.05,0-.17.02-.21.04-2.54,1.02-14,14.1-15.81,16.18-2.69-1.91-12.86-9.04-14.19-9.04h-2.04c-1.47,0-1.59-.3-1.6-.31-.15-.42,1.55-1.8,2.46-2.55,1.19-.98,2.04-1.69,2.39-2.3l11.81,7.88c.06.04.13.06.21.06.04,0,.07,0,.11-.02.11-.03.19-.11.24-.21.85-2.03,5.12-12.2,5.12-13.38l2.03-9.08c0-.67.27-3.46.52-6.15.26-2.84.51-5.52.51-6.15,0-.4-.36-.61-1.07-.61-1.66,0-7.23,1.29-7.79,2.48-.04.08-.05.16-.03.25l3.65,15.21c-.44.9-.7,1.22-.97,1.22s-.73-.28-1.08-.53c-.78-.54-3.27-2.45-2.46-4.13.04-.09.05-.18.02-.27l-3.83-12.42c-.35-1.14.21-2.35,1.31-2.81,4.95-2.37,14.64-6.91,16.01-7.18.2-.04.33-.22.3-.42-.26-1.74-.75-2.78-1.17-3.7-.46-.99-.86-1.84-.86-3.37,0-4.17,2.31-6.56,6.35-6.56s7.16,3.4,7.16,7.57c0,2.97-.26,4.33-2.86,5.78-.14.08-.21.23-.19.39s.15.28.3.31c.99.19,2.57.83,3.84,1.35,1.3.53,1.81.73,2.08.73.92,0,1.78.6,2.26,1.56l1.69,12.33c.02.15.13.28.28.31.03,0,.06.01.09.01.12,0,.24-.06.31-.16l7.13-10.18s.35-.17.83-.17c.35,0,.99.07,1.38.57.37.47.44,1.26.2,2.28l-8.1,11.14c-.66.66-1.42,1.01-2.2,1.01-1.14,0-2-.74-2.32-1.06-2.56-2.56-2.9-7.88-2.94-8.92,0-.2-.18-.39-.38-.39-.1,0-.19.06-.26.13s-.11.19-.11.29c0,.58-.25,2.8-.5,4.96-.27,2.35-.52,4.56-.52,5.23l-1.01,7.07c0,1.26,8.79,9.31,12.56,12.72.95.98,1.16,2.48.5,3.7l-12.99,17c-.05.07-.08.15-.08.23,0,.28,0,.55.02.81.03.76.05,1.47-.2,1.73-.03.03-.12.12-.36.14l-4.99-3Z" fill="#fff"/><path d="m40.68.95c3.74,0,6.78,3.23,6.78,7.2,0,2.94-.22,4.09-2.67,5.45-.28.15-.43.46-.37.77.05.31.29.56.6.62.95.18,2.52.82,3.77,1.33,1.4.57,1.88.76,2.22.76.76,0,1.48.49,1.9,1.3l1.68,12.27c.04.31.27.55.57.63.06.01.12.02.18.02.24,0,.47-.12.61-.32l7.07-10.11c.1-.04.31-.09.57-.09.28,0,.79.06,1.08.43.29.37.34,1.02.14,1.89l-8.02,11.03c-.62.6-1.27.91-1.93.91-1.03,0-1.84-.73-2.06-.95-2.52-2.52-2.81-8.05-2.83-8.67-.02-.38-.31-.72-.68-.75-.02,0-.04,0-.07,0-.19,0-.37.07-.51.2-.16.14-.24.38-.24.59,0,.56-.26,2.87-.5,4.91-.26,2.3-.51,4.47-.52,5.21l-1.01,7.08s0,.07,0,.11c0,.37,0,1.5,12.67,12.93.83.87,1.01,2.15.46,3.21l-12.98,17.01c-.1.13-.15.29-.15.46,0,.28,0,.56.02.82.02.49.04,1.32-.1,1.46,0,0,0,0-.02,0l-4.71-2.83c.31-.47.7-1.12.78-1.91l11.1-13.7s.06-.08.08-.12c.39-.72.23-1.59-.38-2.13-.28-.25-.66-.59-1.11-.98-8.41-7.5-10.48-8.93-11.36-8.93-.12,0-.24.02-.35.07-2.54,1.02-13.14,13.06-15.73,16.03-4.95-3.5-12.81-8.91-14.13-8.91h-2.04c-.63,0-.97-.06-1.15-.11.33-.51,1.51-1.48,2.25-2.09,1.04-.85,1.8-1.49,2.25-2.07l11.51,7.67c.12.08.27.13.42.13.07,0,.14-.01.22-.03.21-.06.39-.22.48-.43,1.17-2.78,4.93-11.77,5.14-13.4l2.03-9.13c.01-.05.02-.11.02-.16,0-.57.27-3.48.51-6.04.26-2.85.51-5.54.51-6.18,0-.3-.14-.98-1.44-.98-1.63,0-7.45,1.24-8.13,2.7-.07.15-.09.33-.05.49l3.61,15.07c-.35.7-.51.86-.57.89-.06,0-.27-.05-.87-.46-1.48-1.03-2.87-2.54-2.33-3.66.08-.17.1-.37.04-.55l-3.83-12.42c-.29-.95.18-1.96,1.13-2.37,5.71-2.74,14.66-6.9,15.91-7.14.4-.08.66-.45.6-.85-.27-1.8-.77-2.86-1.21-3.8-.46-.98-.82-1.76-.82-3.22,0-3.93,2.18-6.18,5.97-6.18m-11.06,43.85h0,0m-17.31,5.09h0,0m30.12,23.74h0,0M40.68.2c-4.28,0-6.72,2.64-6.72,6.93,0,3.06,1.5,3.54,2.04,7.13-1.79.34-16.09,7.2-16.09,7.2-1.27.54-1.93,1.95-1.52,3.26l3.83,12.42c-.84,1.74,1.13,3.59,2.58,4.6.56.39.96.6,1.29.6.51,0,.85-.49,1.36-1.55l-3.68-15.34c.43-.9,5.57-2.27,7.45-2.27.43,0,.69.07.69.23,0,1.22-1.02,11-1.02,12.22l-2.04,9.16c0,1.17-5.09,13.24-5.09,13.24l-12.22-8.14c0,1.62-8.87,6.11-3.05,6.11h2.04c1.34,0,14.25,9.16,14.25,9.16,0,0,13.24-15.27,15.89-16.34.02,0,.04-.01.07-.01,1.21,0,9.66,7.69,11.97,9.72.34.3.43.8.21,1.21l-11.25,13.88c0,1.62-1.93,2.73-.6,2.73l5.09,3.05c1.34,0,1.02-1.44,1.02-3.05l13.02-17.06c.73-1.36.5-3.04-.58-4.16,0,0-12.44-11.22-12.44-12.39l1.02-7.13c0-1.27,1.02-8.97,1.02-10.18,0-.03,0-.04,0-.04,0,0,.13,6.28,3.05,9.2.58.58,1.51,1.17,2.59,1.17.78,0,1.64-.31,2.5-1.17l8.14-11.2c.68-2.72-.79-3.39-1.92-3.39-.57,0-1.05.17-1.14.33l-7.13,10.18-1.7-12.39c-.56-1.17-1.58-1.82-2.63-1.82-.52,0-4.07-1.73-5.86-2.07,2.77-1.55,3.05-3.05,3.05-6.11,0-4.29-3.25-7.95-7.53-7.95h0Z" fill="red"/></svg>