<?xml version="1.0" encoding="UTF-8"?><svg id="Layer_1" xmlns="http://www.w3.org/2000/svg" viewBox="0 0 80 80"><path d="m43.62,79.62c-1.11,0-2.01-1.12-2.01-2.5v-26.97c0-1.52-1.06-2.76-2.36-2.76-.65,0-1.25.3-1.69.84-.43.52-.67,1.2-.67,1.92v26.97c0,1.38-.9,2.5-2.01,2.5h-2.16c-2.63,0-2.94-.3-2.98-.36-.01-.09.2-.42.33-.61.28-.42.63-.94.63-1.53v-30.07c.1-.15.12-.42,0-.55-.63-.67-.99-1.63-.99-2.65v-8.86c0-.6.02-2.78.03-4.96.02-2.18.03-4.37.03-4.96,0-.21-.19-.44-.4-.44-.37,0-.44,0-2.93,6.22-.52,1.31-.98,2.45-1.14,2.79l-3.39,7.07c-.47.97-1.33,1.57-2.25,1.57-.44,0-.88-.14-1.26-.41-1.28-.89-1.71-2.88-.96-4.42l9.41-19.65c.47-.97,1.33-1.58,2.24-1.58.28,0,.84-.19,1.89-.55,1.03-.35,2.31-.79,3.26-.97.16-.03.28-.16.3-.32.02-.16-.06-.32-.21-.39-2.33-1.12-2.33-3.44-2.33-6.37,0-3.99,3.25-7.24,7.24-7.24s7.23,3.25,7.23,7.24c0,.51.02,1,.03,1.48.08,2.31.14,3.98-1.76,4.89-.15.07-.23.23-.21.39.02.16.14.29.3.32.97.19,2.09.64,3,1.01.85.35,1.27.51,1.55.51.92,0,1.77.6,2.24,1.58l9.41,19.65c.74,1.55.31,3.54-.96,4.43-.39.27-.82.41-1.26.41-.92,0-1.78-.6-2.24-1.58l-3.39-7.07c-.08-.18-.27-.58-.52-1.11-3.64-7.88-3.79-7.88-4.14-7.88-.21,0-.4.22-.4.43,0,.6.16,2.69.32,4.9.16,2.17.33,4.41.33,5.02v8.86c0,1.01-.36,1.97-.99,2.65-.12.13-.13.33-.03.47l.03,30.15c0,.78.34,1.48.59,1.99.08.17.19.38.23.51-.03,0-.07,0-.11,0h-4.88Z" fill="#fff"/><path d="m39.25.75c3.78,0,6.86,3.08,6.86,6.87,0,.51.02,1.01.03,1.49.09,2.46.06,3.77-1.54,4.54-.29.14-.46.45-.42.77.04.32.29.58.6.64.93.18,2.04.63,2.92.99.92.38,1.34.54,1.69.54.77,0,1.5.52,1.9,1.36l9.41,19.65c.65,1.37.27,3.19-.83,3.96-.33.23-.68.34-1.05.34-.77,0-1.5-.52-1.91-1.36l-3.39-7.07c-.09-.18-.27-.58-.52-1.11-3.74-8.1-3.84-8.1-4.48-8.1-.38,0-.77.3-.77.81,0,.62.16,2.71.33,4.93.16,2.16.33,4.39.33,4.99v8.86c0,.92-.32,1.79-.88,2.39-.22.24-.26.6-.11.88v30c0,.85.35,1.59.62,2.13h-4.42c-.89,0-1.64-.97-1.64-2.13v-26.97c0-1.73-1.23-3.14-2.73-3.14-.76,0-1.47.35-1.97.97-.49.59-.76,1.36-.76,2.16v26.97c0,1.15-.75,2.13-1.64,2.13h-2.16c-1.47,0-2.15-.09-2.47-.17.05-.07.1-.15.14-.22.31-.46.69-1.04.69-1.74v-30c.16-.28.12-.64-.11-.88-.56-.6-.88-1.47-.88-2.39v-8.86c0-.6.01-2.77.03-4.95.01-2.18.03-4.37.03-4.97,0-.53-.4-.81-.77-.81,0,0,0,0-.01,0-.66,0-.7.04-3.26,6.45-.5,1.25-.97,2.44-1.13,2.76l-3.39,7.07c-.41.84-1.14,1.36-1.91,1.36-.37,0-.72-.11-1.04-.34-1.11-.78-1.5-2.59-.84-3.96l9.41-19.65c.4-.84,1.13-1.37,1.9-1.37.34,0,.86-.17,2.01-.57,1.02-.35,2.29-.79,3.2-.96.32-.06.56-.32.6-.64s-.13-.63-.42-.77c-2.02-.97-2.12-2.83-2.12-6.03,0-3.79,3.08-6.87,6.87-6.87m0-.75c-4.2,0-7.62,3.4-7.62,7.62,0,3.01,0,5.49,2.54,6.71-1.76.33-4.56,1.52-5.07,1.52-1.03,0-2.03.64-2.58,1.79l-9.41,19.65c-.82,1.71-.33,3.9,1.09,4.9.46.32.97.47,1.47.47,1.03,0,2.03-.64,2.59-1.79l3.39-7.07c.49-1.04,3.44-8.79,3.73-8.79.01,0,.02.02.02.06,0,1.19-.06,8.73-.06,9.92v8.86c0,1.15.42,2.19,1.09,2.9-.06.08-.1.19-.1.3v30.07c0,1.59-3.32,2.88,2.39,2.88h2.16c1.31,0,2.39-1.29,2.39-2.88v-26.97c0-.66.23-1.25.59-1.68.36-.44.85-.7,1.4-.7,1.1,0,1.98,1.07,1.98,2.39v26.97c0,1.59,1.07,2.88,2.39,2.88h4.88c1.31,0-.33-1.29-.33-2.88v-30.07c0-.11-.04-.21-.1-.3.67-.72,1.09-1.76,1.09-2.9v-8.86c0-1.25-.66-8.73-.66-9.92,0-.04,0-.06.02-.06.32,0,3.85,7.79,4.32,8.78l3.39,7.07c.55,1.15,1.55,1.79,2.58,1.79.5,0,1.01-.15,1.48-.47,1.42-.99,1.9-3.19,1.09-4.9l-9.41-19.65c-.55-1.15-1.55-1.79-2.58-1.79-.51,0-2.72-1.18-4.48-1.52,2.54-1.22,1.93-3.7,1.93-6.71,0-4.21-3.4-7.62-7.61-7.62h0Z" fill="red"/></svg>